<svg width="830" height="200" viewBox="0 0 830 200" fill="none" xmlns="http://www.w3.org/2000/svg">
<rect width="830" height="200" fill="black"/>
<path d="M170.146 81.168C169.39 81.168 168.685 81.0327 168.032 80.762C167.388 80.4913 166.819 80.1133 166.324 79.628C165.839 79.1427 165.456 78.5733 165.176 77.92C164.905 77.2667 164.77 76.5527 164.77 75.778C164.77 75.0033 164.905 74.2893 165.176 73.636C165.456 72.9733 165.839 72.404 166.324 71.928C166.809 71.4427 167.379 71.0693 168.032 70.808C168.685 70.5373 169.39 70.402 170.146 70.402C170.911 70.402 171.616 70.5373 172.26 70.808C172.913 71.0693 173.483 71.4427 173.968 71.928C174.463 72.4133 174.845 72.9827 175.116 73.636C175.387 74.2893 175.522 75.0033 175.522 75.778C175.522 76.5527 175.382 77.2667 175.102 77.92C174.831 78.5733 174.453 79.1427 173.968 79.628C173.483 80.1133 172.913 80.4913 172.26 80.762C171.607 81.0327 170.902 81.168 170.146 81.168ZM170.146 79.656C170.687 79.656 171.182 79.558 171.63 79.362C172.087 79.166 172.484 78.8953 172.82 78.55C173.156 78.1953 173.417 77.7847 173.604 77.318C173.791 76.842 173.884 76.3287 173.884 75.778C173.884 75.2273 173.791 74.7187 173.604 74.252C173.417 73.7853 173.156 73.3747 172.82 73.02C172.484 72.6653 172.087 72.39 171.63 72.194C171.182 71.998 170.687 71.9 170.146 71.9C169.605 71.9 169.105 71.998 168.648 72.194C168.2 72.39 167.808 72.6653 167.472 73.02C167.136 73.3747 166.875 73.7853 166.688 74.252C166.511 74.7187 166.422 75.2273 166.422 75.778C166.422 76.3287 166.511 76.842 166.688 77.318C166.875 77.7847 167.136 78.1953 167.472 78.55C167.808 78.8953 168.205 79.166 168.662 79.362C169.119 79.558 169.614 79.656 170.146 79.656ZM177.215 83.8V73.426H178.727V74.994L178.545 74.63C178.825 74.2007 179.198 73.8647 179.665 73.622C180.132 73.3793 180.664 73.258 181.261 73.258C181.98 73.258 182.624 73.4307 183.193 73.776C183.772 74.1213 184.224 74.5927 184.551 75.19C184.887 75.7873 185.055 76.4593 185.055 77.206C185.055 77.9527 184.887 78.6247 184.551 79.222C184.224 79.8193 183.776 80.2953 183.207 80.65C182.638 80.9953 181.989 81.168 181.261 81.168C180.673 81.168 180.136 81.0467 179.651 80.804C179.175 80.5613 178.806 80.2113 178.545 79.754L178.797 79.46V83.8H177.215ZM181.107 79.698C181.555 79.698 181.952 79.5907 182.297 79.376C182.642 79.1613 182.913 78.8673 183.109 78.494C183.314 78.1113 183.417 77.682 183.417 77.206C183.417 76.73 183.314 76.3053 183.109 75.932C182.913 75.5587 182.642 75.2647 182.297 75.05C181.952 74.8353 181.555 74.728 181.107 74.728C180.668 74.728 180.272 74.8353 179.917 75.05C179.572 75.2647 179.296 75.5587 179.091 75.932C178.895 76.3053 178.797 76.73 178.797 77.206C178.797 77.682 178.895 78.1113 179.091 78.494C179.296 78.8673 179.572 79.1613 179.917 79.376C180.272 79.5907 180.668 79.698 181.107 79.698ZM190.15 81.168C189.394 81.168 188.722 80.9953 188.134 80.65C187.555 80.2953 187.103 79.8193 186.776 79.222C186.449 78.6153 186.286 77.9387 186.286 77.192C186.286 76.4267 186.449 75.75 186.776 75.162C187.112 74.574 187.56 74.112 188.12 73.776C188.68 73.4307 189.315 73.258 190.024 73.258C190.593 73.258 191.102 73.356 191.55 73.552C191.998 73.748 192.376 74.0187 192.684 74.364C192.992 74.7 193.225 75.0873 193.384 75.526C193.552 75.9647 193.636 76.4313 193.636 76.926C193.636 77.0473 193.631 77.1733 193.622 77.304C193.613 77.4347 193.594 77.556 193.566 77.668H187.532V76.408H192.67L191.914 76.982C192.007 76.5247 191.975 76.1187 191.816 75.764C191.667 75.4 191.433 75.1153 191.116 74.91C190.808 74.6953 190.444 74.588 190.024 74.588C189.604 74.588 189.231 74.6953 188.904 74.91C188.577 75.1153 188.325 75.414 188.148 75.806C187.971 76.1887 187.901 76.6553 187.938 77.206C187.891 77.7193 187.961 78.1673 188.148 78.55C188.344 78.9327 188.615 79.2313 188.96 79.446C189.315 79.6607 189.716 79.768 190.164 79.768C190.621 79.768 191.009 79.6653 191.326 79.46C191.653 79.2547 191.909 78.9887 192.096 78.662L193.384 79.292C193.235 79.6467 193.001 79.9687 192.684 80.258C192.376 80.538 192.003 80.762 191.564 80.93C191.135 81.0887 190.663 81.168 190.15 81.168ZM195.18 81V73.426H196.692V74.91L196.51 74.714C196.697 74.238 196.995 73.8787 197.406 73.636C197.817 73.384 198.293 73.258 198.834 73.258C199.394 73.258 199.889 73.3793 200.318 73.622C200.747 73.8647 201.083 74.2007 201.326 74.63C201.569 75.0593 201.69 75.554 201.69 76.114V81H200.122V76.534C200.122 76.1513 200.052 75.8293 199.912 75.568C199.772 75.2973 199.571 75.092 199.31 74.952C199.058 74.8027 198.769 74.728 198.442 74.728C198.115 74.728 197.821 74.8027 197.56 74.952C197.308 75.092 197.112 75.2973 196.972 75.568C196.832 75.8387 196.762 76.1607 196.762 76.534V81H195.18ZM165.078 105V94.57H168.494C169.577 94.57 170.515 94.7893 171.308 95.228C172.111 95.6573 172.731 96.264 173.17 97.048C173.609 97.832 173.828 98.742 173.828 99.778C173.828 100.805 173.609 101.715 173.17 102.508C172.731 103.292 172.111 103.903 171.308 104.342C170.515 104.781 169.577 105 168.494 105H165.078ZM166.73 103.53H168.522C169.259 103.53 169.899 103.376 170.44 103.068C170.991 102.76 171.415 102.326 171.714 101.766C172.013 101.206 172.162 100.543 172.162 99.778C172.162 99.0127 172.008 98.3547 171.7 97.804C171.401 97.244 170.981 96.81 170.44 96.502C169.899 96.194 169.259 96.04 168.522 96.04H166.73V103.53ZM178.857 105.168C178.101 105.168 177.429 104.995 176.841 104.65C176.262 104.295 175.81 103.819 175.483 103.222C175.156 102.615 174.993 101.939 174.993 101.192C174.993 100.427 175.156 99.75 175.483 99.162C175.819 98.574 176.267 98.112 176.827 97.776C177.387 97.4307 178.022 97.258 178.731 97.258C179.3 97.258 179.809 97.356 180.257 97.552C180.705 97.748 181.083 98.0187 181.391 98.364C181.699 98.7 181.932 99.0873 182.091 99.526C182.259 99.9647 182.343 100.431 182.343 100.926C182.343 101.047 182.338 101.173 182.329 101.304C182.32 101.435 182.301 101.556 182.273 101.668H176.239V100.408H181.377L180.621 100.982C180.714 100.525 180.682 100.119 180.523 99.764C180.374 99.4 180.14 99.1153 179.823 98.91C179.515 98.6953 179.151 98.588 178.731 98.588C178.311 98.588 177.938 98.6953 177.611 98.91C177.284 99.1153 177.032 99.414 176.855 99.806C176.678 100.189 176.608 100.655 176.645 101.206C176.598 101.719 176.668 102.167 176.855 102.55C177.051 102.933 177.322 103.231 177.667 103.446C178.022 103.661 178.423 103.768 178.871 103.768C179.328 103.768 179.716 103.665 180.033 103.46C180.36 103.255 180.616 102.989 180.803 102.662L182.091 103.292C181.942 103.647 181.708 103.969 181.391 104.258C181.083 104.538 180.71 104.762 180.271 104.93C179.842 105.089 179.37 105.168 178.857 105.168ZM187.443 105.168C186.687 105.168 186.015 104.995 185.427 104.65C184.848 104.295 184.396 103.819 184.069 103.222C183.742 102.615 183.579 101.939 183.579 101.192C183.579 100.427 183.742 99.75 184.069 99.162C184.405 98.574 184.853 98.112 185.413 97.776C185.973 97.4307 186.608 97.258 187.317 97.258C187.886 97.258 188.395 97.356 188.843 97.552C189.291 97.748 189.669 98.0187 189.977 98.364C190.285 98.7 190.518 99.0873 190.677 99.526C190.845 99.9647 190.929 100.431 190.929 100.926C190.929 101.047 190.924 101.173 190.915 101.304C190.906 101.435 190.887 101.556 190.859 101.668H184.825V100.408H189.963L189.207 100.982C189.3 100.525 189.268 100.119 189.109 99.764C188.96 99.4 188.726 99.1153 188.409 98.91C188.101 98.6953 187.737 98.588 187.317 98.588C186.897 98.588 186.524 98.6953 186.197 98.91C185.87 99.1153 185.618 99.414 185.441 99.806C185.264 100.189 185.194 100.655 185.231 101.206C185.184 101.719 185.254 102.167 185.441 102.55C185.637 102.933 185.908 103.231 186.253 103.446C186.608 103.661 187.009 103.768 187.457 103.768C187.914 103.768 188.302 103.665 188.619 103.46C188.946 103.255 189.202 102.989 189.389 102.662L190.677 103.292C190.528 103.647 190.294 103.969 189.977 104.258C189.669 104.538 189.296 104.762 188.857 104.93C188.428 105.089 187.956 105.168 187.443 105.168ZM192.473 107.8V97.426H193.985V98.994L193.803 98.63C194.083 98.2007 194.456 97.8647 194.923 97.622C195.389 97.3793 195.921 97.258 196.519 97.258C197.237 97.258 197.881 97.4307 198.451 97.776C199.029 98.1213 199.482 98.5927 199.809 99.19C200.145 99.7873 200.313 100.459 200.313 101.206C200.313 101.953 200.145 102.625 199.809 103.222C199.482 103.819 199.034 104.295 198.465 104.65C197.895 104.995 197.247 105.168 196.519 105.168C195.931 105.168 195.394 105.047 194.909 104.804C194.433 104.561 194.064 104.211 193.803 103.754L194.055 103.46V107.8H192.473ZM196.365 103.698C196.813 103.698 197.209 103.591 197.555 103.376C197.9 103.161 198.171 102.867 198.367 102.494C198.572 102.111 198.675 101.682 198.675 101.206C198.675 100.73 198.572 100.305 198.367 99.932C198.171 99.5587 197.9 99.2647 197.555 99.05C197.209 98.8353 196.813 98.728 196.365 98.728C195.926 98.728 195.529 98.8353 195.175 99.05C194.829 99.2647 194.554 99.5587 194.349 99.932C194.153 100.305 194.055 100.73 194.055 101.206C194.055 101.682 194.153 102.111 194.349 102.494C194.554 102.867 194.829 103.161 195.175 103.376C195.529 103.591 195.926 103.698 196.365 103.698ZM206.399 105L203.529 94.57H205.279L207.603 103.6H207.169L209.577 94.57H211.299L213.707 103.6H213.259L215.597 94.57H217.333L214.477 105H212.615L210.193 96.11H210.683L208.247 105H206.399ZM218.408 105V97.426H219.99V105H218.408ZM218.408 96.39V94.57H219.99V96.39H218.408ZM225.34 105.168C224.612 105.168 223.959 104.995 223.38 104.65C222.811 104.295 222.358 103.819 222.022 103.222C221.695 102.625 221.532 101.953 221.532 101.206C221.532 100.459 221.7 99.7873 222.036 99.19C222.372 98.5927 222.825 98.1213 223.394 97.776C223.963 97.4307 224.607 97.258 225.326 97.258C225.933 97.258 226.469 97.3793 226.936 97.622C227.403 97.8647 227.771 98.2007 228.042 98.63L227.804 98.994V94.402H229.372V105H227.874V103.46L228.056 103.754C227.795 104.211 227.421 104.561 226.936 104.804C226.451 105.047 225.919 105.168 225.34 105.168ZM225.494 103.698C225.933 103.698 226.325 103.591 226.67 103.376C227.025 103.161 227.3 102.867 227.496 102.494C227.701 102.111 227.804 101.682 227.804 101.206C227.804 100.73 227.701 100.305 227.496 99.932C227.3 99.5587 227.025 99.2647 226.67 99.05C226.325 98.8353 225.933 98.728 225.494 98.728C225.055 98.728 224.659 98.8353 224.304 99.05C223.949 99.2647 223.674 99.5587 223.478 99.932C223.282 100.305 223.184 100.73 223.184 101.206C223.184 101.682 223.282 102.111 223.478 102.494C223.674 102.867 223.945 103.161 224.29 103.376C224.645 103.591 225.046 103.698 225.494 103.698ZM234.775 105.168C234.019 105.168 233.347 104.995 232.759 104.65C232.18 104.295 231.728 103.819 231.401 103.222C231.074 102.615 230.911 101.939 230.911 101.192C230.911 100.427 231.074 99.75 231.401 99.162C231.737 98.574 232.185 98.112 232.745 97.776C233.305 97.4307 233.94 97.258 234.649 97.258C235.218 97.258 235.727 97.356 236.175 97.552C236.623 97.748 237.001 98.0187 237.309 98.364C237.617 98.7 237.85 99.0873 238.009 99.526C238.177 99.9647 238.261 100.431 238.261 100.926C238.261 101.047 238.256 101.173 238.247 101.304C238.238 101.435 238.219 101.556 238.191 101.668H232.157V100.408H237.295L236.539 100.982C236.632 100.525 236.6 100.119 236.441 99.764C236.292 99.4 236.058 99.1153 235.741 98.91C235.433 98.6953 235.069 98.588 234.649 98.588C234.229 98.588 233.856 98.6953 233.529 98.91C233.202 99.1153 232.95 99.414 232.773 99.806C232.596 100.189 232.526 100.655 232.563 101.206C232.516 101.719 232.586 102.167 232.773 102.55C232.969 102.933 233.24 103.231 233.585 103.446C233.94 103.661 234.341 103.768 234.789 103.768C235.246 103.768 235.634 103.665 235.951 103.46C236.278 103.255 236.534 102.989 236.721 102.662L238.009 103.292C237.86 103.647 237.626 103.969 237.309 104.258C237.001 104.538 236.628 104.762 236.189 104.93C235.76 105.089 235.288 105.168 234.775 105.168ZM165.078 129V118.57H168.872C169.572 118.57 170.188 118.701 170.72 118.962C171.252 119.214 171.667 119.587 171.966 120.082C172.274 120.567 172.428 121.151 172.428 121.832C172.428 122.551 172.246 123.167 171.882 123.68C171.527 124.193 171.047 124.567 170.44 124.8L172.848 129H170.972L168.41 124.45L169.488 125.08H166.73V129H165.078ZM166.73 123.61H168.9C169.283 123.61 169.614 123.535 169.894 123.386C170.174 123.237 170.389 123.031 170.538 122.77C170.697 122.499 170.776 122.182 170.776 121.818C170.776 121.454 170.697 121.141 170.538 120.88C170.389 120.609 170.174 120.404 169.894 120.264C169.614 120.115 169.283 120.04 168.9 120.04H166.73V123.61ZM177.216 129.168C176.46 129.168 175.788 128.995 175.2 128.65C174.622 128.295 174.169 127.819 173.842 127.222C173.516 126.615 173.352 125.939 173.352 125.192C173.352 124.427 173.516 123.75 173.842 123.162C174.178 122.574 174.626 122.112 175.186 121.776C175.746 121.431 176.381 121.258 177.09 121.258C177.66 121.258 178.168 121.356 178.616 121.552C179.064 121.748 179.442 122.019 179.75 122.364C180.058 122.7 180.292 123.087 180.45 123.526C180.618 123.965 180.702 124.431 180.702 124.926C180.702 125.047 180.698 125.173 180.688 125.304C180.679 125.435 180.66 125.556 180.632 125.668H174.598V124.408H179.736L178.98 124.982C179.074 124.525 179.041 124.119 178.882 123.764C178.733 123.4 178.5 123.115 178.182 122.91C177.874 122.695 177.51 122.588 177.09 122.588C176.67 122.588 176.297 122.695 175.97 122.91C175.644 123.115 175.392 123.414 175.214 123.806C175.037 124.189 174.967 124.655 175.004 125.206C174.958 125.719 175.028 126.167 175.214 126.55C175.41 126.933 175.681 127.231 176.026 127.446C176.381 127.661 176.782 127.768 177.23 127.768C177.688 127.768 178.075 127.665 178.392 127.46C178.719 127.255 178.976 126.989 179.162 126.662L180.45 127.292C180.301 127.647 180.068 127.969 179.75 128.258C179.442 128.538 179.069 128.762 178.63 128.93C178.201 129.089 177.73 129.168 177.216 129.168ZM185.046 129.168C184.272 129.168 183.59 128.977 183.002 128.594C182.424 128.211 182.018 127.698 181.784 127.054L183.002 126.48C183.208 126.909 183.488 127.25 183.842 127.502C184.206 127.754 184.608 127.88 185.046 127.88C185.42 127.88 185.723 127.796 185.956 127.628C186.19 127.46 186.306 127.231 186.306 126.942C186.306 126.755 186.255 126.606 186.152 126.494C186.05 126.373 185.919 126.275 185.76 126.2C185.611 126.125 185.457 126.069 185.298 126.032L184.108 125.696C183.455 125.509 182.965 125.229 182.638 124.856C182.321 124.473 182.162 124.03 182.162 123.526C182.162 123.069 182.279 122.672 182.512 122.336C182.746 121.991 183.068 121.725 183.478 121.538C183.889 121.351 184.351 121.258 184.864 121.258C185.555 121.258 186.171 121.431 186.712 121.776C187.254 122.112 187.636 122.583 187.86 123.19L186.642 123.764C186.493 123.4 186.255 123.111 185.928 122.896C185.611 122.681 185.252 122.574 184.85 122.574C184.505 122.574 184.23 122.658 184.024 122.826C183.819 122.985 183.716 123.195 183.716 123.456C183.716 123.633 183.763 123.783 183.856 123.904C183.95 124.016 184.071 124.109 184.22 124.184C184.37 124.249 184.524 124.305 184.682 124.352L185.914 124.716C186.54 124.893 187.02 125.173 187.356 125.556C187.692 125.929 187.86 126.377 187.86 126.9C187.86 127.348 187.739 127.745 187.496 128.09C187.263 128.426 186.936 128.692 186.516 128.888C186.096 129.075 185.606 129.168 185.046 129.168ZM192.966 129.168C192.21 129.168 191.538 128.995 190.95 128.65C190.372 128.295 189.919 127.819 189.592 127.222C189.266 126.615 189.102 125.939 189.102 125.192C189.102 124.427 189.266 123.75 189.592 123.162C189.928 122.574 190.376 122.112 190.936 121.776C191.496 121.431 192.131 121.258 192.84 121.258C193.41 121.258 193.918 121.356 194.366 121.552C194.814 121.748 195.192 122.019 195.5 122.364C195.808 122.7 196.042 123.087 196.2 123.526C196.368 123.965 196.452 124.431 196.452 124.926C196.452 125.047 196.448 125.173 196.438 125.304C196.429 125.435 196.41 125.556 196.382 125.668H190.348V124.408H195.486L194.73 124.982C194.824 124.525 194.791 124.119 194.632 123.764C194.483 123.4 194.25 123.115 193.932 122.91C193.624 122.695 193.26 122.588 192.84 122.588C192.42 122.588 192.047 122.695 191.72 122.91C191.394 123.115 191.142 123.414 190.964 123.806C190.787 124.189 190.717 124.655 190.754 125.206C190.708 125.719 190.778 126.167 190.964 126.55C191.16 126.933 191.431 127.231 191.776 127.446C192.131 127.661 192.532 127.768 192.98 127.768C193.438 127.768 193.825 127.665 194.142 127.46C194.469 127.255 194.726 126.989 194.912 126.662L196.2 127.292C196.051 127.647 195.818 127.969 195.5 128.258C195.192 128.538 194.819 128.762 194.38 128.93C193.951 129.089 193.48 129.168 192.966 129.168ZM200.196 129.168C199.683 129.168 199.23 129.079 198.838 128.902C198.455 128.715 198.157 128.463 197.942 128.146C197.727 127.819 197.62 127.437 197.62 126.998C197.62 126.587 197.709 126.219 197.886 125.892C198.073 125.565 198.357 125.29 198.74 125.066C199.123 124.842 199.603 124.683 200.182 124.59L202.814 124.156V125.402L200.49 125.808C200.07 125.883 199.762 126.018 199.566 126.214C199.37 126.401 199.272 126.643 199.272 126.942C199.272 127.231 199.379 127.469 199.594 127.656C199.818 127.833 200.103 127.922 200.448 127.922C200.877 127.922 201.251 127.829 201.568 127.642C201.895 127.455 202.147 127.208 202.324 126.9C202.501 126.583 202.59 126.233 202.59 125.85V123.904C202.59 123.531 202.45 123.227 202.17 122.994C201.899 122.751 201.535 122.63 201.078 122.63C200.658 122.63 200.289 122.742 199.972 122.966C199.664 123.181 199.435 123.461 199.286 123.806L197.97 123.148C198.11 122.775 198.339 122.448 198.656 122.168C198.973 121.879 199.342 121.655 199.762 121.496C200.191 121.337 200.644 121.258 201.12 121.258C201.717 121.258 202.245 121.37 202.702 121.594C203.169 121.818 203.528 122.131 203.78 122.532C204.041 122.924 204.172 123.381 204.172 123.904V129H202.66V127.628L202.982 127.67C202.805 127.978 202.576 128.244 202.296 128.468C202.025 128.692 201.713 128.865 201.358 128.986C201.013 129.107 200.625 129.168 200.196 129.168ZM206.022 129V121.426H207.534V122.952L207.394 122.728C207.562 122.233 207.832 121.879 208.206 121.664C208.579 121.44 209.027 121.328 209.55 121.328H210.012V122.77H209.354C208.831 122.77 208.406 122.933 208.08 123.26C207.762 123.577 207.604 124.035 207.604 124.632V129H206.022ZM214.692 129.168C213.936 129.168 213.264 128.995 212.676 128.65C212.097 128.295 211.635 127.819 211.29 127.222C210.954 126.625 210.786 125.948 210.786 125.192C210.786 124.445 210.954 123.773 211.29 123.176C211.626 122.579 212.088 122.112 212.676 121.776C213.264 121.431 213.936 121.258 214.692 121.258C215.205 121.258 215.686 121.351 216.134 121.538C216.582 121.715 216.969 121.963 217.296 122.28C217.632 122.597 217.879 122.966 218.038 123.386L216.652 124.03C216.493 123.638 216.237 123.325 215.882 123.092C215.537 122.849 215.14 122.728 214.692 122.728C214.263 122.728 213.875 122.835 213.53 123.05C213.194 123.255 212.928 123.549 212.732 123.932C212.536 124.305 212.438 124.73 212.438 125.206C212.438 125.682 212.536 126.111 212.732 126.494C212.928 126.867 213.194 127.161 213.53 127.376C213.875 127.591 214.263 127.698 214.692 127.698C215.149 127.698 215.546 127.581 215.882 127.348C216.227 127.105 216.484 126.783 216.652 126.382L218.038 127.04C217.889 127.441 217.646 127.805 217.31 128.132C216.983 128.449 216.596 128.701 216.148 128.888C215.7 129.075 215.215 129.168 214.692 129.168ZM219.584 129V118.402H221.166V122.91L220.914 122.714C221.101 122.238 221.399 121.879 221.81 121.636C222.221 121.384 222.697 121.258 223.238 121.258C223.798 121.258 224.293 121.379 224.722 121.622C225.151 121.865 225.487 122.201 225.73 122.63C225.973 123.059 226.094 123.549 226.094 124.1V129H224.526V124.534C224.526 124.151 224.451 123.829 224.302 123.568C224.162 123.297 223.966 123.092 223.714 122.952C223.462 122.803 223.173 122.728 222.846 122.728C222.529 122.728 222.239 122.803 221.978 122.952C221.726 123.092 221.525 123.297 221.376 123.568C221.236 123.839 221.166 124.161 221.166 124.534V129H219.584Z" fill="#D9D9D9"/>
<path d="M608.078 105V94.57H612.474C613.127 94.57 613.692 94.6867 614.168 94.92C614.644 95.144 615.008 95.4707 615.26 95.9C615.512 96.32 615.638 96.8193 615.638 97.398C615.638 97.902 615.507 98.364 615.246 98.784C614.994 99.1947 614.597 99.5213 614.056 99.764V99.064C614.532 99.2507 614.919 99.4887 615.218 99.778C615.517 100.058 615.731 100.375 615.862 100.73C616.002 101.085 616.072 101.458 616.072 101.85C616.072 102.83 615.75 103.6 615.106 104.16C614.471 104.72 613.599 105 612.488 105H608.078ZM609.73 103.53H612.614C613.165 103.53 613.603 103.381 613.93 103.082C614.257 102.774 614.42 102.368 614.42 101.864C614.42 101.351 614.257 100.945 613.93 100.646C613.603 100.338 613.165 100.184 612.614 100.184H609.73V103.53ZM609.73 98.728H612.516C612.964 98.728 613.323 98.602 613.594 98.35C613.865 98.0887 614 97.748 614 97.328C614 96.908 613.865 96.5813 613.594 96.348C613.323 96.1147 612.964 95.998 612.516 95.998H609.73V98.728ZM620.319 105.168C619.75 105.168 619.251 105.042 618.821 104.79C618.392 104.529 618.056 104.169 617.813 103.712C617.58 103.245 617.463 102.709 617.463 102.102V97.426H619.045V101.962C619.045 102.307 619.115 102.611 619.255 102.872C619.395 103.133 619.591 103.339 619.843 103.488C620.095 103.628 620.385 103.698 620.711 103.698C621.047 103.698 621.341 103.623 621.593 103.474C621.845 103.325 622.041 103.115 622.181 102.844C622.331 102.573 622.405 102.256 622.405 101.892V97.426H623.973V105H622.475V103.516L622.643 103.712C622.466 104.179 622.172 104.538 621.761 104.79C621.351 105.042 620.87 105.168 620.319 105.168ZM625.82 105V97.426H627.402V105H625.82ZM625.82 96.39V94.57H627.402V96.39H625.82ZM629.252 105V94.402H630.834V105H629.252ZM636.184 105.168C635.456 105.168 634.802 104.995 634.224 104.65C633.654 104.295 633.202 103.819 632.866 103.222C632.539 102.625 632.376 101.953 632.376 101.206C632.376 100.459 632.544 99.7873 632.88 99.19C633.216 98.5927 633.668 98.1213 634.238 97.776C634.807 97.4307 635.451 97.258 636.17 97.258C636.776 97.258 637.313 97.3793 637.78 97.622C638.246 97.8647 638.615 98.2007 638.886 98.63L638.648 98.994V94.402H640.216V105H638.718V103.46L638.9 103.754C638.638 104.211 638.265 104.561 637.78 104.804C637.294 105.047 636.762 105.168 636.184 105.168ZM636.338 103.698C636.776 103.698 637.168 103.591 637.514 103.376C637.868 103.161 638.144 102.867 638.34 102.494C638.545 102.111 638.648 101.682 638.648 101.206C638.648 100.73 638.545 100.305 638.34 99.932C638.144 99.5587 637.868 99.2647 637.514 99.05C637.168 98.8353 636.776 98.728 636.338 98.728C635.899 98.728 635.502 98.8353 635.148 99.05C634.793 99.2647 634.518 99.5587 634.322 99.932C634.126 100.305 634.028 100.73 634.028 101.206C634.028 101.682 634.126 102.111 634.322 102.494C634.518 102.867 634.788 103.161 635.134 103.376C635.488 103.591 635.89 103.698 636.338 103.698ZM646.778 105.168C646.265 105.168 645.812 105.079 645.42 104.902C645.037 104.715 644.739 104.463 644.524 104.146C644.309 103.819 644.202 103.437 644.202 102.998C644.202 102.587 644.291 102.219 644.468 101.892C644.655 101.565 644.939 101.29 645.322 101.066C645.705 100.842 646.185 100.683 646.764 100.59L649.396 100.156V101.402L647.072 101.808C646.652 101.883 646.344 102.018 646.148 102.214C645.952 102.401 645.854 102.643 645.854 102.942C645.854 103.231 645.961 103.469 646.176 103.656C646.4 103.833 646.685 103.922 647.03 103.922C647.459 103.922 647.833 103.829 648.15 103.642C648.477 103.455 648.729 103.208 648.906 102.9C649.083 102.583 649.172 102.233 649.172 101.85V99.904C649.172 99.5307 649.032 99.2273 648.752 98.994C648.481 98.7513 648.117 98.63 647.66 98.63C647.24 98.63 646.871 98.742 646.554 98.966C646.246 99.1807 646.017 99.4607 645.868 99.806L644.552 99.148C644.692 98.7747 644.921 98.448 645.238 98.168C645.555 97.8787 645.924 97.6547 646.344 97.496C646.773 97.3373 647.226 97.258 647.702 97.258C648.299 97.258 648.827 97.37 649.284 97.594C649.751 97.818 650.11 98.1307 650.362 98.532C650.623 98.924 650.754 99.3813 650.754 99.904V105H649.242V103.628L649.564 103.67C649.387 103.978 649.158 104.244 648.878 104.468C648.607 104.692 648.295 104.865 647.94 104.986C647.595 105.107 647.207 105.168 646.778 105.168ZM652.604 105V97.426H654.116V98.91L653.934 98.714C654.12 98.238 654.419 97.8787 654.83 97.636C655.24 97.384 655.716 97.258 656.258 97.258C656.818 97.258 657.312 97.3793 657.742 97.622C658.171 97.8647 658.507 98.2007 658.75 98.63C658.992 99.0593 659.114 99.554 659.114 100.114V105H657.546V100.534C657.546 100.151 657.476 99.8293 657.336 99.568C657.196 99.2973 656.995 99.092 656.734 98.952C656.482 98.8027 656.192 98.728 655.866 98.728C655.539 98.728 655.245 98.8027 654.984 98.952C654.732 99.092 654.536 99.2973 654.396 99.568C654.256 99.8387 654.186 100.161 654.186 100.534V105H652.604ZM661.342 108.08C661.155 108.08 660.969 108.061 660.782 108.024C660.605 107.996 660.441 107.949 660.292 107.884V106.526C660.404 106.554 660.539 106.577 660.698 106.596C660.857 106.624 661.011 106.638 661.16 106.638C661.599 106.638 661.921 106.54 662.126 106.344C662.341 106.157 662.532 105.868 662.7 105.476L663.204 104.328L663.176 105.658L659.9 97.426H661.594L664.016 103.74H663.442L665.85 97.426H667.558L664.212 105.826C664.035 106.274 663.811 106.666 663.54 107.002C663.279 107.347 662.966 107.613 662.602 107.8C662.247 107.987 661.827 108.08 661.342 108.08ZM673.356 105.168C672.843 105.168 672.39 105.079 671.998 104.902C671.615 104.715 671.317 104.463 671.102 104.146C670.887 103.819 670.78 103.437 670.78 102.998C670.78 102.587 670.869 102.219 671.046 101.892C671.233 101.565 671.517 101.29 671.9 101.066C672.283 100.842 672.763 100.683 673.342 100.59L675.974 100.156V101.402L673.65 101.808C673.23 101.883 672.922 102.018 672.726 102.214C672.53 102.401 672.432 102.643 672.432 102.942C672.432 103.231 672.539 103.469 672.754 103.656C672.978 103.833 673.263 103.922 673.608 103.922C674.037 103.922 674.411 103.829 674.728 103.642C675.055 103.455 675.307 103.208 675.484 102.9C675.661 102.583 675.75 102.233 675.75 101.85V99.904C675.75 99.5307 675.61 99.2273 675.33 98.994C675.059 98.7513 674.695 98.63 674.238 98.63C673.818 98.63 673.449 98.742 673.132 98.966C672.824 99.1807 672.595 99.4607 672.446 99.806L671.13 99.148C671.27 98.7747 671.499 98.448 671.816 98.168C672.133 97.8787 672.502 97.6547 672.922 97.496C673.351 97.3373 673.804 97.258 674.28 97.258C674.877 97.258 675.405 97.37 675.862 97.594C676.329 97.818 676.688 98.1307 676.94 98.532C677.201 98.924 677.332 99.3813 677.332 99.904V105H675.82V103.628L676.142 103.67C675.965 103.978 675.736 104.244 675.456 104.468C675.185 104.692 674.873 104.865 674.518 104.986C674.173 105.107 673.785 105.168 673.356 105.168ZM682.836 108.08C682.285 108.08 681.776 107.991 681.31 107.814C680.843 107.637 680.442 107.389 680.106 107.072C679.77 106.764 679.518 106.4 679.35 105.98L680.806 105.378C680.936 105.733 681.174 106.027 681.52 106.26C681.874 106.493 682.308 106.61 682.822 106.61C683.223 106.61 683.582 106.531 683.9 106.372C684.217 106.223 684.469 105.999 684.656 105.7C684.842 105.411 684.936 105.061 684.936 104.65V102.942L685.216 103.264C684.954 103.749 684.59 104.118 684.124 104.37C683.666 104.622 683.148 104.748 682.57 104.748C681.87 104.748 681.24 104.585 680.68 104.258C680.12 103.931 679.676 103.483 679.35 102.914C679.032 102.345 678.874 101.705 678.874 100.996C678.874 100.277 679.032 99.638 679.35 99.078C679.676 98.518 680.115 98.0747 680.666 97.748C681.216 97.4213 681.846 97.258 682.556 97.258C683.134 97.258 683.648 97.384 684.096 97.636C684.553 97.8787 684.926 98.2333 685.216 98.7L685.006 99.092V97.426H686.504V104.65C686.504 105.303 686.345 105.887 686.028 106.4C685.72 106.923 685.29 107.333 684.74 107.632C684.189 107.931 683.554 108.08 682.836 108.08ZM682.752 103.278C683.172 103.278 683.545 103.18 683.872 102.984C684.198 102.779 684.455 102.508 684.642 102.172C684.838 101.827 684.936 101.439 684.936 101.01C684.936 100.581 684.838 100.193 684.642 99.848C684.446 99.5027 684.184 99.232 683.858 99.036C683.531 98.8307 683.162 98.728 682.752 98.728C682.322 98.728 681.94 98.8307 681.604 99.036C681.268 99.232 681.002 99.5027 680.806 99.848C680.619 100.184 680.526 100.571 680.526 101.01C680.526 101.43 680.619 101.813 680.806 102.158C681.002 102.503 681.268 102.779 681.604 102.984C681.94 103.18 682.322 103.278 682.752 103.278ZM691.912 105.168C691.156 105.168 690.484 104.995 689.896 104.65C689.317 104.295 688.864 103.819 688.538 103.222C688.211 102.615 688.048 101.939 688.048 101.192C688.048 100.427 688.211 99.75 688.538 99.162C688.874 98.574 689.322 98.112 689.882 97.776C690.442 97.4307 691.076 97.258 691.786 97.258C692.355 97.258 692.864 97.356 693.312 97.552C693.76 97.748 694.138 98.0187 694.446 98.364C694.754 98.7 694.987 99.0873 695.146 99.526C695.314 99.9647 695.398 100.431 695.398 100.926C695.398 101.047 695.393 101.173 695.384 101.304C695.374 101.435 695.356 101.556 695.328 101.668H689.294V100.408H694.432L693.676 100.982C693.769 100.525 693.736 100.119 693.578 99.764C693.428 99.4 693.195 99.1153 692.878 98.91C692.57 98.6953 692.206 98.588 691.786 98.588C691.366 98.588 690.992 98.6953 690.666 98.91C690.339 99.1153 690.087 99.414 689.91 99.806C689.732 100.189 689.662 100.655 689.7 101.206C689.653 101.719 689.723 102.167 689.91 102.55C690.106 102.933 690.376 103.231 690.722 103.446C691.076 103.661 691.478 103.768 691.926 103.768C692.383 103.768 692.77 103.665 693.088 103.46C693.414 103.255 693.671 102.989 693.858 102.662L695.146 103.292C694.996 103.647 694.763 103.969 694.446 104.258C694.138 104.538 693.764 104.762 693.326 104.93C692.896 105.089 692.425 105.168 691.912 105.168ZM696.942 105V97.426H698.454V98.91L698.272 98.714C698.458 98.238 698.757 97.8787 699.168 97.636C699.578 97.384 700.054 97.258 700.596 97.258C701.156 97.258 701.65 97.3793 702.08 97.622C702.509 97.8647 702.845 98.2007 703.088 98.63C703.33 99.0593 703.452 99.554 703.452 100.114V105H701.884V100.534C701.884 100.151 701.814 99.8293 701.674 99.568C701.534 99.2973 701.333 99.092 701.072 98.952C700.82 98.8027 700.53 98.728 700.204 98.728C699.877 98.728 699.583 98.8027 699.322 98.952C699.07 99.092 698.874 99.2973 698.734 99.568C698.594 99.8387 698.524 100.161 698.524 100.534V105H696.942ZM708.421 105.084C707.627 105.084 707.011 104.86 706.573 104.412C706.134 103.964 705.915 103.334 705.915 102.522V98.854H704.585V97.426H704.795C705.149 97.426 705.425 97.3233 705.621 97.118C705.817 96.9127 705.915 96.6327 705.915 96.278V95.69H707.497V97.426H709.219V98.854H707.497V102.452C707.497 102.713 707.539 102.937 707.623 103.124C707.707 103.301 707.842 103.441 708.029 103.544C708.215 103.637 708.458 103.684 708.757 103.684C708.831 103.684 708.915 103.679 709.009 103.67C709.102 103.661 709.191 103.651 709.275 103.642V105C709.144 105.019 708.999 105.037 708.841 105.056C708.682 105.075 708.542 105.084 708.421 105.084ZM710.819 105V97.426H712.401V105H710.819ZM710.819 96.39V94.57H712.401V96.39H710.819ZM717.848 105.168C717.092 105.168 716.42 104.995 715.832 104.65C715.254 104.295 714.792 103.819 714.446 103.222C714.11 102.625 713.942 101.948 713.942 101.192C713.942 100.445 714.11 99.7733 714.446 99.176C714.782 98.5787 715.244 98.112 715.832 97.776C716.42 97.4307 717.092 97.258 717.848 97.258C718.362 97.258 718.842 97.3513 719.29 97.538C719.738 97.7153 720.126 97.9627 720.452 98.28C720.788 98.5973 721.036 98.966 721.194 99.386L719.808 100.03C719.65 99.638 719.393 99.3253 719.038 99.092C718.693 98.8493 718.296 98.728 717.848 98.728C717.419 98.728 717.032 98.8353 716.686 99.05C716.35 99.2553 716.084 99.5493 715.888 99.932C715.692 100.305 715.594 100.73 715.594 101.206C715.594 101.682 715.692 102.111 715.888 102.494C716.084 102.867 716.35 103.161 716.686 103.376C717.032 103.591 717.419 103.698 717.848 103.698C718.306 103.698 718.702 103.581 719.038 103.348C719.384 103.105 719.64 102.783 719.808 102.382L721.194 103.04C721.045 103.441 720.802 103.805 720.466 104.132C720.14 104.449 719.752 104.701 719.304 104.888C718.856 105.075 718.371 105.168 717.848 105.168ZM725.342 105V94.57H729.136C729.836 94.57 730.452 94.7007 730.984 94.962C731.516 95.214 731.931 95.5873 732.23 96.082C732.538 96.5673 732.692 97.1507 732.692 97.832C732.692 98.5507 732.51 99.1667 732.146 99.68C731.791 100.193 731.31 100.567 730.704 100.8L733.112 105H731.236L728.674 100.45L729.752 101.08H726.994V105H725.342ZM726.994 99.61H729.164C729.546 99.61 729.878 99.5353 730.158 99.386C730.438 99.2367 730.652 99.0313 730.802 98.77C730.96 98.4993 731.04 98.182 731.04 97.818C731.04 97.454 730.96 97.1413 730.802 96.88C730.652 96.6093 730.438 96.404 730.158 96.264C729.878 96.1147 729.546 96.04 729.164 96.04H726.994V99.61ZM733.578 105L737.246 94.57H739.29L742.958 105H741.194L740.396 102.662H736.154L735.342 105H733.578ZM736.63 101.192H739.892L738.044 95.732H738.506L736.63 101.192ZM748.657 105.168C747.92 105.168 747.234 105.033 746.599 104.762C745.974 104.491 745.423 104.118 744.947 103.642C744.481 103.157 744.117 102.587 743.855 101.934C743.594 101.281 743.463 100.562 743.463 99.778C743.463 99.0033 743.589 98.2893 743.841 97.636C744.103 96.9733 744.467 96.404 744.933 95.928C745.4 95.4427 745.946 95.0693 746.571 94.808C747.197 94.5373 747.883 94.402 748.629 94.402C749.367 94.402 750.025 94.528 750.603 94.78C751.191 95.032 751.686 95.3633 752.087 95.774C752.489 96.1753 752.778 96.614 752.955 97.09L751.485 97.804C751.271 97.2347 750.916 96.7773 750.421 96.432C749.927 96.0773 749.329 95.9 748.629 95.9C747.939 95.9 747.327 96.0633 746.795 96.39C746.263 96.7167 745.848 97.1693 745.549 97.748C745.26 98.3267 745.115 99.0033 745.115 99.778C745.115 100.553 745.265 101.234 745.563 101.822C745.871 102.401 746.291 102.853 746.823 103.18C747.355 103.497 747.967 103.656 748.657 103.656C749.236 103.656 749.763 103.539 750.239 103.306C750.725 103.063 751.112 102.727 751.401 102.298C751.691 101.859 751.835 101.351 751.835 100.772V100.058L752.577 100.73H748.629V99.33H753.473V100.31C753.473 101.075 753.343 101.761 753.081 102.368C752.82 102.965 752.465 103.474 752.017 103.894C751.569 104.314 751.056 104.631 750.477 104.846C749.899 105.061 749.292 105.168 748.657 105.168ZM609.758 129L607.154 121.426H608.834L610.822 127.46H610.234L612.264 121.426H613.706L615.722 127.46H615.134L617.136 121.426H618.816L616.198 129H614.77L612.726 122.826H613.244L611.2 129H609.758ZM619.901 129V121.426H621.483V129H619.901ZM619.901 120.39V118.57H621.483V120.39H619.901ZM626.608 129.084C625.815 129.084 625.199 128.86 624.76 128.412C624.322 127.964 624.102 127.334 624.102 126.522V122.854H622.772V121.426H622.982C623.337 121.426 623.612 121.323 623.808 121.118C624.004 120.913 624.102 120.633 624.102 120.278V119.69H625.684V121.426H627.406V122.854H625.684V126.452C625.684 126.713 625.726 126.937 625.81 127.124C625.894 127.301 626.03 127.441 626.216 127.544C626.403 127.637 626.646 127.684 626.944 127.684C627.019 127.684 627.103 127.679 627.196 127.67C627.29 127.661 627.378 127.651 627.462 127.642V129C627.332 129.019 627.187 129.037 627.028 129.056C626.87 129.075 626.73 129.084 626.608 129.084ZM629.006 129V118.402H630.588V122.91L630.336 122.714C630.523 122.238 630.821 121.879 631.232 121.636C631.643 121.384 632.119 121.258 632.66 121.258C633.22 121.258 633.715 121.379 634.144 121.622C634.573 121.865 634.909 122.201 635.152 122.63C635.395 123.059 635.516 123.549 635.516 124.1V129H633.948V124.534C633.948 124.151 633.873 123.829 633.724 123.568C633.584 123.297 633.388 123.092 633.136 122.952C632.884 122.803 632.595 122.728 632.268 122.728C631.951 122.728 631.661 122.803 631.4 122.952C631.148 123.092 630.947 123.297 630.798 123.568C630.658 123.839 630.588 124.161 630.588 124.534V129H629.006ZM643.156 129.168C642.428 129.168 641.775 128.995 641.196 128.65C640.627 128.295 640.174 127.819 639.838 127.222C639.512 126.625 639.348 125.953 639.348 125.206C639.348 124.459 639.516 123.787 639.852 123.19C640.188 122.593 640.641 122.121 641.21 121.776C641.78 121.431 642.424 121.258 643.142 121.258C643.749 121.258 644.286 121.379 644.752 121.622C645.219 121.865 645.588 122.201 645.858 122.63L645.62 122.994V118.402H647.188V129H645.69V127.46L645.872 127.754C645.611 128.211 645.238 128.561 644.752 128.804C644.267 129.047 643.735 129.168 643.156 129.168ZM643.31 127.698C643.749 127.698 644.141 127.591 644.486 127.376C644.841 127.161 645.116 126.867 645.312 126.494C645.518 126.111 645.62 125.682 645.62 125.206C645.62 124.73 645.518 124.305 645.312 123.932C645.116 123.559 644.841 123.265 644.486 123.05C644.141 122.835 643.749 122.728 643.31 122.728C642.872 122.728 642.475 122.835 642.12 123.05C641.766 123.265 641.49 123.559 641.294 123.932C641.098 124.305 641 124.73 641 125.206C641 125.682 641.098 126.111 641.294 126.494C641.49 126.867 641.761 127.161 642.106 127.376C642.461 127.591 642.862 127.698 643.31 127.698ZM652.591 129.168C651.835 129.168 651.163 128.995 650.575 128.65C649.997 128.295 649.544 127.819 649.217 127.222C648.891 126.615 648.727 125.939 648.727 125.192C648.727 124.427 648.891 123.75 649.217 123.162C649.553 122.574 650.001 122.112 650.561 121.776C651.121 121.431 651.756 121.258 652.465 121.258C653.035 121.258 653.543 121.356 653.991 121.552C654.439 121.748 654.817 122.019 655.125 122.364C655.433 122.7 655.667 123.087 655.825 123.526C655.993 123.965 656.077 124.431 656.077 124.926C656.077 125.047 656.073 125.173 656.063 125.304C656.054 125.435 656.035 125.556 656.007 125.668H649.973V124.408H655.111L654.355 124.982C654.449 124.525 654.416 124.119 654.257 123.764C654.108 123.4 653.875 123.115 653.557 122.91C653.249 122.695 652.885 122.588 652.465 122.588C652.045 122.588 651.672 122.695 651.345 122.91C651.019 123.115 650.767 123.414 650.589 123.806C650.412 124.189 650.342 124.655 650.379 125.206C650.333 125.719 650.403 126.167 650.589 126.55C650.785 126.933 651.056 127.231 651.401 127.446C651.756 127.661 652.157 127.768 652.605 127.768C653.063 127.768 653.45 127.665 653.767 127.46C654.094 127.255 654.351 126.989 654.537 126.662L655.825 127.292C655.676 127.647 655.443 127.969 655.125 128.258C654.817 128.538 654.444 128.762 654.005 128.93C653.576 129.089 653.105 129.168 652.591 129.168ZM657.621 131.8V121.426H659.133V122.994L658.951 122.63C659.231 122.201 659.605 121.865 660.071 121.622C660.538 121.379 661.07 121.258 661.667 121.258C662.386 121.258 663.03 121.431 663.599 121.776C664.178 122.121 664.631 122.593 664.957 123.19C665.293 123.787 665.461 124.459 665.461 125.206C665.461 125.953 665.293 126.625 664.957 127.222C664.631 127.819 664.183 128.295 663.613 128.65C663.044 128.995 662.395 129.168 661.667 129.168C661.079 129.168 660.543 129.047 660.057 128.804C659.581 128.561 659.213 128.211 658.951 127.754L659.203 127.46V131.8H657.621ZM661.513 127.698C661.961 127.698 662.358 127.591 662.703 127.376C663.049 127.161 663.319 126.867 663.515 126.494C663.721 126.111 663.823 125.682 663.823 125.206C663.823 124.73 663.721 124.305 663.515 123.932C663.319 123.559 663.049 123.265 662.703 123.05C662.358 122.835 661.961 122.728 661.513 122.728C661.075 122.728 660.678 122.835 660.323 123.05C659.978 123.265 659.703 123.559 659.497 123.932C659.301 124.305 659.203 124.73 659.203 125.206C659.203 125.682 659.301 126.111 659.497 126.494C659.703 126.867 659.978 127.161 660.323 127.376C660.678 127.591 661.075 127.698 661.513 127.698ZM670.139 129.084C669.346 129.084 668.73 128.86 668.291 128.412C667.853 127.964 667.633 127.334 667.633 126.522V122.854H666.303V121.426H666.513C666.868 121.426 667.143 121.323 667.339 121.118C667.535 120.913 667.633 120.633 667.633 120.278V119.69H669.215V121.426H670.937V122.854H669.215V126.452C669.215 126.713 669.257 126.937 669.341 127.124C669.425 127.301 669.561 127.441 669.747 127.544C669.934 127.637 670.177 127.684 670.475 127.684C670.55 127.684 670.634 127.679 670.727 127.67C670.821 127.661 670.909 127.651 670.993 127.642V129C670.863 129.019 670.718 129.037 670.559 129.056C670.401 129.075 670.261 129.084 670.139 129.084ZM672.537 129V118.402H674.119V122.91L673.867 122.714C674.054 122.238 674.353 121.879 674.763 121.636C675.174 121.384 675.65 121.258 676.191 121.258C676.751 121.258 677.246 121.379 677.675 121.622C678.105 121.865 678.441 122.201 678.683 122.63C678.926 123.059 679.047 123.549 679.047 124.1V129H677.479V124.534C677.479 124.151 677.405 123.829 677.255 123.568C677.115 123.297 676.919 123.092 676.667 122.952C676.415 122.803 676.126 122.728 675.799 122.728C675.482 122.728 675.193 122.803 674.931 122.952C674.679 123.092 674.479 123.297 674.329 123.568C674.189 123.839 674.119 124.161 674.119 124.534V129H672.537ZM682.432 129L685.078 125.206L682.432 121.426H684.294L686.464 124.59H685.568L687.738 121.426H689.6L686.94 125.206L689.586 129H687.724L685.582 125.822H686.45L684.294 129H682.432ZM694.961 129L692.357 121.426H694.037L696.025 127.46H695.437L697.467 121.426H698.909L700.925 127.46H700.337L702.339 121.426H704.019L701.401 129H699.973L697.929 122.826H698.447L696.403 129H694.961ZM705.104 129V121.426H706.686V129H705.104ZM705.104 120.39V118.57H706.686V120.39H705.104ZM712.035 129.168C711.307 129.168 710.654 128.995 710.075 128.65C709.506 128.295 709.053 127.819 708.717 127.222C708.391 126.625 708.227 125.953 708.227 125.206C708.227 124.459 708.395 123.787 708.731 123.19C709.067 122.593 709.52 122.121 710.089 121.776C710.659 121.431 711.303 121.258 712.021 121.258C712.628 121.258 713.165 121.379 713.631 121.622C714.098 121.865 714.467 122.201 714.737 122.63L714.499 122.994V118.402H716.067V129H714.569V127.46L714.751 127.754C714.49 128.211 714.117 128.561 713.631 128.804C713.146 129.047 712.614 129.168 712.035 129.168ZM712.189 127.698C712.628 127.698 713.02 127.591 713.365 127.376C713.72 127.161 713.995 126.867 714.191 126.494C714.397 126.111 714.499 125.682 714.499 125.206C714.499 124.73 714.397 124.305 714.191 123.932C713.995 123.559 713.72 123.265 713.365 123.05C713.02 122.835 712.628 122.728 712.189 122.728C711.751 122.728 711.354 122.835 710.999 123.05C710.645 123.265 710.369 123.559 710.173 123.932C709.977 124.305 709.879 124.73 709.879 125.206C709.879 125.682 709.977 126.111 710.173 126.494C710.369 126.867 710.64 127.161 710.985 127.376C711.34 127.591 711.741 127.698 712.189 127.698ZM721.19 129.084C720.397 129.084 719.781 128.86 719.342 128.412C718.904 127.964 718.684 127.334 718.684 126.522V122.854H717.354V121.426H717.564C717.919 121.426 718.194 121.323 718.39 121.118C718.586 120.913 718.684 120.633 718.684 120.278V119.69H720.266V121.426H721.988V122.854H720.266V126.452C720.266 126.713 720.308 126.937 720.392 127.124C720.476 127.301 720.612 127.441 720.798 127.544C720.985 127.637 721.228 127.684 721.526 127.684C721.601 127.684 721.685 127.679 721.778 127.67C721.872 127.661 721.96 127.651 722.044 127.642V129C721.914 129.019 721.769 129.037 721.61 129.056C721.452 129.075 721.312 129.084 721.19 129.084ZM723.588 129V118.402H725.17V122.91L724.918 122.714C725.105 122.238 725.403 121.879 725.814 121.636C726.225 121.384 726.701 121.258 727.242 121.258C727.802 121.258 728.297 121.379 728.726 121.622C729.155 121.865 729.491 122.201 729.734 122.63C729.977 123.059 730.098 123.549 730.098 124.1V129H728.53V124.534C728.53 124.151 728.455 123.829 728.306 123.568C728.166 123.297 727.97 123.092 727.718 122.952C727.466 122.803 727.177 122.728 726.85 122.728C726.533 122.728 726.243 122.803 725.982 122.952C725.73 123.092 725.529 123.297 725.38 123.568C725.24 123.839 725.17 124.161 725.17 124.534V129H723.588Z" fill="#8B8B8B"/>
<rect x="130.5" y="92.5" width="7" height="7" stroke="#D9D9D9"/>
<rect x="121" y="101" width="8" height="8" fill="#D9D9D9"/>
<line x1="128.646" y1="108.646" x2="137.646" y2="99.6464" stroke="#D9D9D9"/>
<line x1="130.354" y1="92.3536" x2="121.354" y2="101.354" stroke="#D9D9D9"/>
<rect x="130.5" y="92.5" width="7" height="7" stroke="#D9D9D9"/>
<rect x="121" y="101" width="8" height="8" fill="#D9D9D9"/>
<line x1="128.646" y1="108.646" x2="137.646" y2="99.6464" stroke="#D9D9D9"/>
<line x1="130.354" y1="92.3536" x2="121.354" y2="101.354" stroke="#D9D9D9"/>
<path d="M128 102L137.5 92.5" stroke="#D9D9D9"/>
<rect x="102.5" y="73.5" width="7" height="7" stroke="#D9D9D9"/>
<rect x="97" y="78" width="8" height="8" fill="#D9D9D9"/>
<line x1="104.646" y1="85.6464" x2="109.646" y2="80.6464" stroke="#D9D9D9"/>
<line x1="102.354" y1="73.3536" x2="97.3536" y2="78.3536" stroke="#D9D9D9"/>
<rect x="103.5" y="119.5" width="7" height="7" stroke="#D9D9D9"/>
<rect x="97" y="125" width="8" height="8" fill="#D9D9D9"/>
<line x1="103.354" y1="119.354" x2="97.3536" y2="125.354" stroke="#D9D9D9"/>
<line x1="104.646" y1="132.646" x2="110.646" y2="126.646" stroke="#D9D9D9"/>
<path d="M110.5 119.5L104 126" stroke="#D9D9D9"/>
<rect x="129.5" y="117.5" width="7" height="7" stroke="#D9D9D9"/>
<rect x="121" y="125" width="8" height="8" fill="#D9D9D9"/>
<line x1="129.354" y1="117.354" x2="121.354" y2="125.354" stroke="#D9D9D9"/>
<line x1="128.646" y1="132.646" x2="136.646" y2="124.646" stroke="#D9D9D9"/>
<path d="M136.5 117.5L128 126" stroke="#D9D9D9"/>
<path d="M100 83L109.5 73.5" stroke="#D9D9D9"/>
<rect x="128.5" y="71.5" width="7" height="7" stroke="#D9D9D9"/>
<rect x="121" y="78" width="8" height="8" fill="#D9D9D9"/>
<line x1="128.354" y1="71.3536" x2="121.354" y2="78.3536" stroke="#D9D9D9"/>
<line x1="128.646" y1="85.6464" x2="135.646" y2="78.6464" stroke="#D9D9D9"/>
<path d="M135 72L128 79" stroke="#D9D9D9"/>
<rect x="101.5" y="97.5" width="7" height="7" stroke="#D9D9D9"/>
<rect x="97" y="101" width="8" height="8" fill="#D9D9D9"/>
<line x1="101.354" y1="97.3536" x2="97.3536" y2="101.354" stroke="#D9D9D9"/>
<line x1="104.646" y1="108.646" x2="108.646" y2="104.646" stroke="#D9D9D9"/>
<path d="M108 98L104 102" stroke="#D9D9D9"/>
<rect x="76.5" y="98.5" width="7" height="7" stroke="#D9D9D9"/>
<rect x="73" y="101" width="8" height="8" fill="#D9D9D9"/>
<line x1="76.3536" y1="98.3536" x2="73.3536" y2="101.354" stroke="#D9D9D9"/>
<line x1="80.6464" y1="108.646" x2="83.6464" y2="105.646" stroke="#D9D9D9"/>
<path d="M83 99L80 102" stroke="#D9D9D9"/>
<rect x="73" y="125" width="8" height="8" fill="#D9D9D9"/>
<line x1="80.6464" y1="132.646" x2="89.6464" y2="123.646" stroke="#D9D9D9"/>
<line x1="82.3536" y1="116.354" x2="73.3536" y2="125.354" stroke="#D9D9D9"/>
<rect x="83.5" y="115.5" width="7" height="7" stroke="#D9D9D9"/>
<rect x="73" y="125" width="8" height="8" fill="#D9D9D9"/>
<line x1="80.6464" y1="132.646" x2="90.6464" y2="122.646" stroke="#D9D9D9"/>
<line x1="83.3536" y1="115.354" x2="73.3536" y2="125.354" stroke="#D9D9D9"/>
<path d="M80 126L90 116" stroke="#D9D9D9"/>
<rect x="73" y="78" width="8" height="8" fill="#D9D9D9"/>
<line x1="80.6464" y1="85.6464" x2="89.6464" y2="76.6464" stroke="#D9D9D9"/>
<line x1="82.3536" y1="69.3536" x2="73.3536" y2="78.3536" stroke="#D9D9D9"/>
<rect x="84.5" y="67.5" width="7" height="7" stroke="#D9D9D9"/>
<rect x="73" y="78" width="8" height="8" fill="#D9D9D9"/>
<line x1="80.6464" y1="85.6464" x2="91.6464" y2="74.6464" stroke="#D9D9D9"/>
<line x1="84.3536" y1="67.3536" x2="73.3536" y2="78.3536" stroke="#D9D9D9"/>
<path d="M80 79L91 68" stroke="#D9D9D9"/>
</svg>
