<svg width="830" height="200" viewBox="0 0 830 200" fill="none" xmlns="http://www.w3.org/2000/svg">
<rect width="830" height="200" fill="#141414"/>
<path d="M436.146 81.168C435.39 81.168 434.685 81.0327 434.032 80.762C433.388 80.4913 432.819 80.1133 432.324 79.628C431.839 79.1427 431.456 78.5733 431.176 77.92C430.905 77.2667 430.77 76.5527 430.77 75.778C430.77 75.0033 430.905 74.2893 431.176 73.636C431.456 72.9733 431.839 72.404 432.324 71.928C432.809 71.4427 433.379 71.0693 434.032 70.808C434.685 70.5373 435.39 70.402 436.146 70.402C436.911 70.402 437.616 70.5373 438.26 70.808C438.913 71.0693 439.483 71.4427 439.968 71.928C440.463 72.4133 440.845 72.9827 441.116 73.636C441.387 74.2893 441.522 75.0033 441.522 75.778C441.522 76.5527 441.382 77.2667 441.102 77.92C440.831 78.5733 440.453 79.1427 439.968 79.628C439.483 80.1133 438.913 80.4913 438.26 80.762C437.607 81.0327 436.902 81.168 436.146 81.168ZM436.146 79.656C436.687 79.656 437.182 79.558 437.63 79.362C438.087 79.166 438.484 78.8953 438.82 78.55C439.156 78.1953 439.417 77.7847 439.604 77.318C439.791 76.842 439.884 76.3287 439.884 75.778C439.884 75.2273 439.791 74.7187 439.604 74.252C439.417 73.7853 439.156 73.3747 438.82 73.02C438.484 72.6653 438.087 72.39 437.63 72.194C437.182 71.998 436.687 71.9 436.146 71.9C435.605 71.9 435.105 71.998 434.648 72.194C434.2 72.39 433.808 72.6653 433.472 73.02C433.136 73.3747 432.875 73.7853 432.688 74.252C432.511 74.7187 432.422 75.2273 432.422 75.778C432.422 76.3287 432.511 76.842 432.688 77.318C432.875 77.7847 433.136 78.1953 433.472 78.55C433.808 78.8953 434.205 79.166 434.662 79.362C435.119 79.558 435.614 79.656 436.146 79.656ZM443.215 83.8V73.426H444.727V74.994L444.545 74.63C444.825 74.2007 445.198 73.8647 445.665 73.622C446.132 73.3793 446.664 73.258 447.261 73.258C447.98 73.258 448.624 73.4307 449.193 73.776C449.772 74.1213 450.224 74.5927 450.551 75.19C450.887 75.7873 451.055 76.4593 451.055 77.206C451.055 77.9527 450.887 78.6247 450.551 79.222C450.224 79.8193 449.776 80.2953 449.207 80.65C448.638 80.9953 447.989 81.168 447.261 81.168C446.673 81.168 446.136 81.0467 445.651 80.804C445.175 80.5613 444.806 80.2113 444.545 79.754L444.797 79.46V83.8H443.215ZM447.107 79.698C447.555 79.698 447.952 79.5907 448.297 79.376C448.642 79.1613 448.913 78.8673 449.109 78.494C449.314 78.1113 449.417 77.682 449.417 77.206C449.417 76.73 449.314 76.3053 449.109 75.932C448.913 75.5587 448.642 75.2647 448.297 75.05C447.952 74.8353 447.555 74.728 447.107 74.728C446.668 74.728 446.272 74.8353 445.917 75.05C445.572 75.2647 445.296 75.5587 445.091 75.932C444.895 76.3053 444.797 76.73 444.797 77.206C444.797 77.682 444.895 78.1113 445.091 78.494C445.296 78.8673 445.572 79.1613 445.917 79.376C446.272 79.5907 446.668 79.698 447.107 79.698ZM456.15 81.168C455.394 81.168 454.722 80.9953 454.134 80.65C453.555 80.2953 453.103 79.8193 452.776 79.222C452.449 78.6153 452.286 77.9387 452.286 77.192C452.286 76.4267 452.449 75.75 452.776 75.162C453.112 74.574 453.56 74.112 454.12 73.776C454.68 73.4307 455.315 73.258 456.024 73.258C456.593 73.258 457.102 73.356 457.55 73.552C457.998 73.748 458.376 74.0187 458.684 74.364C458.992 74.7 459.225 75.0873 459.384 75.526C459.552 75.9647 459.636 76.4313 459.636 76.926C459.636 77.0473 459.631 77.1733 459.622 77.304C459.613 77.4347 459.594 77.556 459.566 77.668H453.532V76.408H458.67L457.914 76.982C458.007 76.5247 457.975 76.1187 457.816 75.764C457.667 75.4 457.433 75.1153 457.116 74.91C456.808 74.6953 456.444 74.588 456.024 74.588C455.604 74.588 455.231 74.6953 454.904 74.91C454.577 75.1153 454.325 75.414 454.148 75.806C453.971 76.1887 453.901 76.6553 453.938 77.206C453.891 77.7193 453.961 78.1673 454.148 78.55C454.344 78.9327 454.615 79.2313 454.96 79.446C455.315 79.6607 455.716 79.768 456.164 79.768C456.621 79.768 457.009 79.6653 457.326 79.46C457.653 79.2547 457.909 78.9887 458.096 78.662L459.384 79.292C459.235 79.6467 459.001 79.9687 458.684 80.258C458.376 80.538 458.003 80.762 457.564 80.93C457.135 81.0887 456.663 81.168 456.15 81.168ZM461.18 81V73.426H462.692V74.91L462.51 74.714C462.697 74.238 462.995 73.8787 463.406 73.636C463.817 73.384 464.293 73.258 464.834 73.258C465.394 73.258 465.889 73.3793 466.318 73.622C466.747 73.8647 467.083 74.2007 467.326 74.63C467.569 75.0593 467.69 75.554 467.69 76.114V81H466.122V76.534C466.122 76.1513 466.052 75.8293 465.912 75.568C465.772 75.2973 465.571 75.092 465.31 74.952C465.058 74.8027 464.769 74.728 464.442 74.728C464.115 74.728 463.821 74.8027 463.56 74.952C463.308 75.092 463.112 75.2973 462.972 75.568C462.832 75.8387 462.762 76.1607 462.762 76.534V81H461.18ZM431.078 105V94.57H434.494C435.577 94.57 436.515 94.7893 437.308 95.228C438.111 95.6573 438.731 96.264 439.17 97.048C439.609 97.832 439.828 98.742 439.828 99.778C439.828 100.805 439.609 101.715 439.17 102.508C438.731 103.292 438.111 103.903 437.308 104.342C436.515 104.781 435.577 105 434.494 105H431.078ZM432.73 103.53H434.522C435.259 103.53 435.899 103.376 436.44 103.068C436.991 102.76 437.415 102.326 437.714 101.766C438.013 101.206 438.162 100.543 438.162 99.778C438.162 99.0127 438.008 98.3547 437.7 97.804C437.401 97.244 436.981 96.81 436.44 96.502C435.899 96.194 435.259 96.04 434.522 96.04H432.73V103.53ZM444.857 105.168C444.101 105.168 443.429 104.995 442.841 104.65C442.262 104.295 441.81 103.819 441.483 103.222C441.156 102.615 440.993 101.939 440.993 101.192C440.993 100.427 441.156 99.75 441.483 99.162C441.819 98.574 442.267 98.112 442.827 97.776C443.387 97.4307 444.022 97.258 444.731 97.258C445.3 97.258 445.809 97.356 446.257 97.552C446.705 97.748 447.083 98.0187 447.391 98.364C447.699 98.7 447.932 99.0873 448.091 99.526C448.259 99.9647 448.343 100.431 448.343 100.926C448.343 101.047 448.338 101.173 448.329 101.304C448.32 101.435 448.301 101.556 448.273 101.668H442.239V100.408H447.377L446.621 100.982C446.714 100.525 446.682 100.119 446.523 99.764C446.374 99.4 446.14 99.1153 445.823 98.91C445.515 98.6953 445.151 98.588 444.731 98.588C444.311 98.588 443.938 98.6953 443.611 98.91C443.284 99.1153 443.032 99.414 442.855 99.806C442.678 100.189 442.608 100.655 442.645 101.206C442.598 101.719 442.668 102.167 442.855 102.55C443.051 102.933 443.322 103.231 443.667 103.446C444.022 103.661 444.423 103.768 444.871 103.768C445.328 103.768 445.716 103.665 446.033 103.46C446.36 103.255 446.616 102.989 446.803 102.662L448.091 103.292C447.942 103.647 447.708 103.969 447.391 104.258C447.083 104.538 446.71 104.762 446.271 104.93C445.842 105.089 445.37 105.168 444.857 105.168ZM453.443 105.168C452.687 105.168 452.015 104.995 451.427 104.65C450.848 104.295 450.396 103.819 450.069 103.222C449.742 102.615 449.579 101.939 449.579 101.192C449.579 100.427 449.742 99.75 450.069 99.162C450.405 98.574 450.853 98.112 451.413 97.776C451.973 97.4307 452.608 97.258 453.317 97.258C453.886 97.258 454.395 97.356 454.843 97.552C455.291 97.748 455.669 98.0187 455.977 98.364C456.285 98.7 456.518 99.0873 456.677 99.526C456.845 99.9647 456.929 100.431 456.929 100.926C456.929 101.047 456.924 101.173 456.915 101.304C456.906 101.435 456.887 101.556 456.859 101.668H450.825V100.408H455.963L455.207 100.982C455.3 100.525 455.268 100.119 455.109 99.764C454.96 99.4 454.726 99.1153 454.409 98.91C454.101 98.6953 453.737 98.588 453.317 98.588C452.897 98.588 452.524 98.6953 452.197 98.91C451.87 99.1153 451.618 99.414 451.441 99.806C451.264 100.189 451.194 100.655 451.231 101.206C451.184 101.719 451.254 102.167 451.441 102.55C451.637 102.933 451.908 103.231 452.253 103.446C452.608 103.661 453.009 103.768 453.457 103.768C453.914 103.768 454.302 103.665 454.619 103.46C454.946 103.255 455.202 102.989 455.389 102.662L456.677 103.292C456.528 103.647 456.294 103.969 455.977 104.258C455.669 104.538 455.296 104.762 454.857 104.93C454.428 105.089 453.956 105.168 453.443 105.168ZM458.473 107.8V97.426H459.985V98.994L459.803 98.63C460.083 98.2007 460.456 97.8647 460.923 97.622C461.389 97.3793 461.921 97.258 462.519 97.258C463.237 97.258 463.881 97.4307 464.451 97.776C465.029 98.1213 465.482 98.5927 465.809 99.19C466.145 99.7873 466.313 100.459 466.313 101.206C466.313 101.953 466.145 102.625 465.809 103.222C465.482 103.819 465.034 104.295 464.465 104.65C463.895 104.995 463.247 105.168 462.519 105.168C461.931 105.168 461.394 105.047 460.909 104.804C460.433 104.561 460.064 104.211 459.803 103.754L460.055 103.46V107.8H458.473ZM462.365 103.698C462.813 103.698 463.209 103.591 463.555 103.376C463.9 103.161 464.171 102.867 464.367 102.494C464.572 102.111 464.675 101.682 464.675 101.206C464.675 100.73 464.572 100.305 464.367 99.932C464.171 99.5587 463.9 99.2647 463.555 99.05C463.209 98.8353 462.813 98.728 462.365 98.728C461.926 98.728 461.529 98.8353 461.175 99.05C460.829 99.2647 460.554 99.5587 460.349 99.932C460.153 100.305 460.055 100.73 460.055 101.206C460.055 101.682 460.153 102.111 460.349 102.494C460.554 102.867 460.829 103.161 461.175 103.376C461.529 103.591 461.926 103.698 462.365 103.698ZM472.399 105L469.529 94.57H471.279L473.603 103.6H473.169L475.577 94.57H477.299L479.707 103.6H479.259L481.597 94.57H483.333L480.477 105H478.615L476.193 96.11H476.683L474.247 105H472.399ZM484.408 105V97.426H485.99V105H484.408ZM484.408 96.39V94.57H485.99V96.39H484.408ZM491.34 105.168C490.612 105.168 489.959 104.995 489.38 104.65C488.811 104.295 488.358 103.819 488.022 103.222C487.695 102.625 487.532 101.953 487.532 101.206C487.532 100.459 487.7 99.7873 488.036 99.19C488.372 98.5927 488.825 98.1213 489.394 97.776C489.963 97.4307 490.607 97.258 491.326 97.258C491.933 97.258 492.469 97.3793 492.936 97.622C493.403 97.8647 493.771 98.2007 494.042 98.63L493.804 98.994V94.402H495.372V105H493.874V103.46L494.056 103.754C493.795 104.211 493.421 104.561 492.936 104.804C492.451 105.047 491.919 105.168 491.34 105.168ZM491.494 103.698C491.933 103.698 492.325 103.591 492.67 103.376C493.025 103.161 493.3 102.867 493.496 102.494C493.701 102.111 493.804 101.682 493.804 101.206C493.804 100.73 493.701 100.305 493.496 99.932C493.3 99.5587 493.025 99.2647 492.67 99.05C492.325 98.8353 491.933 98.728 491.494 98.728C491.055 98.728 490.659 98.8353 490.304 99.05C489.949 99.2647 489.674 99.5587 489.478 99.932C489.282 100.305 489.184 100.73 489.184 101.206C489.184 101.682 489.282 102.111 489.478 102.494C489.674 102.867 489.945 103.161 490.29 103.376C490.645 103.591 491.046 103.698 491.494 103.698ZM500.775 105.168C500.019 105.168 499.347 104.995 498.759 104.65C498.18 104.295 497.728 103.819 497.401 103.222C497.074 102.615 496.911 101.939 496.911 101.192C496.911 100.427 497.074 99.75 497.401 99.162C497.737 98.574 498.185 98.112 498.745 97.776C499.305 97.4307 499.94 97.258 500.649 97.258C501.218 97.258 501.727 97.356 502.175 97.552C502.623 97.748 503.001 98.0187 503.309 98.364C503.617 98.7 503.85 99.0873 504.009 99.526C504.177 99.9647 504.261 100.431 504.261 100.926C504.261 101.047 504.256 101.173 504.247 101.304C504.238 101.435 504.219 101.556 504.191 101.668H498.157V100.408H503.295L502.539 100.982C502.632 100.525 502.6 100.119 502.441 99.764C502.292 99.4 502.058 99.1153 501.741 98.91C501.433 98.6953 501.069 98.588 500.649 98.588C500.229 98.588 499.856 98.6953 499.529 98.91C499.202 99.1153 498.95 99.414 498.773 99.806C498.596 100.189 498.526 100.655 498.563 101.206C498.516 101.719 498.586 102.167 498.773 102.55C498.969 102.933 499.24 103.231 499.585 103.446C499.94 103.661 500.341 103.768 500.789 103.768C501.246 103.768 501.634 103.665 501.951 103.46C502.278 103.255 502.534 102.989 502.721 102.662L504.009 103.292C503.86 103.647 503.626 103.969 503.309 104.258C503.001 104.538 502.628 104.762 502.189 104.93C501.76 105.089 501.288 105.168 500.775 105.168ZM431.078 129V118.57H434.872C435.572 118.57 436.188 118.701 436.72 118.962C437.252 119.214 437.667 119.587 437.966 120.082C438.274 120.567 438.428 121.151 438.428 121.832C438.428 122.551 438.246 123.167 437.882 123.68C437.527 124.193 437.047 124.567 436.44 124.8L438.848 129H436.972L434.41 124.45L435.488 125.08H432.73V129H431.078ZM432.73 123.61H434.9C435.283 123.61 435.614 123.535 435.894 123.386C436.174 123.237 436.389 123.031 436.538 122.77C436.697 122.499 436.776 122.182 436.776 121.818C436.776 121.454 436.697 121.141 436.538 120.88C436.389 120.609 436.174 120.404 435.894 120.264C435.614 120.115 435.283 120.04 434.9 120.04H432.73V123.61ZM443.216 129.168C442.46 129.168 441.788 128.995 441.2 128.65C440.622 128.295 440.169 127.819 439.842 127.222C439.516 126.615 439.352 125.939 439.352 125.192C439.352 124.427 439.516 123.75 439.842 123.162C440.178 122.574 440.626 122.112 441.186 121.776C441.746 121.431 442.381 121.258 443.09 121.258C443.66 121.258 444.168 121.356 444.616 121.552C445.064 121.748 445.442 122.019 445.75 122.364C446.058 122.7 446.292 123.087 446.45 123.526C446.618 123.965 446.702 124.431 446.702 124.926C446.702 125.047 446.698 125.173 446.688 125.304C446.679 125.435 446.66 125.556 446.632 125.668H440.598V124.408H445.736L444.98 124.982C445.074 124.525 445.041 124.119 444.882 123.764C444.733 123.4 444.5 123.115 444.182 122.91C443.874 122.695 443.51 122.588 443.09 122.588C442.67 122.588 442.297 122.695 441.97 122.91C441.644 123.115 441.392 123.414 441.214 123.806C441.037 124.189 440.967 124.655 441.004 125.206C440.958 125.719 441.028 126.167 441.214 126.55C441.41 126.933 441.681 127.231 442.026 127.446C442.381 127.661 442.782 127.768 443.23 127.768C443.688 127.768 444.075 127.665 444.392 127.46C444.719 127.255 444.976 126.989 445.162 126.662L446.45 127.292C446.301 127.647 446.068 127.969 445.75 128.258C445.442 128.538 445.069 128.762 444.63 128.93C444.201 129.089 443.73 129.168 443.216 129.168ZM451.046 129.168C450.272 129.168 449.59 128.977 449.002 128.594C448.424 128.211 448.018 127.698 447.784 127.054L449.002 126.48C449.208 126.909 449.488 127.25 449.842 127.502C450.206 127.754 450.608 127.88 451.046 127.88C451.42 127.88 451.723 127.796 451.956 127.628C452.19 127.46 452.306 127.231 452.306 126.942C452.306 126.755 452.255 126.606 452.152 126.494C452.05 126.373 451.919 126.275 451.76 126.2C451.611 126.125 451.457 126.069 451.298 126.032L450.108 125.696C449.455 125.509 448.965 125.229 448.638 124.856C448.321 124.473 448.162 124.03 448.162 123.526C448.162 123.069 448.279 122.672 448.512 122.336C448.746 121.991 449.068 121.725 449.478 121.538C449.889 121.351 450.351 121.258 450.864 121.258C451.555 121.258 452.171 121.431 452.712 121.776C453.254 122.112 453.636 122.583 453.86 123.19L452.642 123.764C452.493 123.4 452.255 123.111 451.928 122.896C451.611 122.681 451.252 122.574 450.85 122.574C450.505 122.574 450.23 122.658 450.024 122.826C449.819 122.985 449.716 123.195 449.716 123.456C449.716 123.633 449.763 123.783 449.856 123.904C449.95 124.016 450.071 124.109 450.22 124.184C450.37 124.249 450.524 124.305 450.682 124.352L451.914 124.716C452.54 124.893 453.02 125.173 453.356 125.556C453.692 125.929 453.86 126.377 453.86 126.9C453.86 127.348 453.739 127.745 453.496 128.09C453.263 128.426 452.936 128.692 452.516 128.888C452.096 129.075 451.606 129.168 451.046 129.168ZM458.966 129.168C458.21 129.168 457.538 128.995 456.95 128.65C456.372 128.295 455.919 127.819 455.592 127.222C455.266 126.615 455.102 125.939 455.102 125.192C455.102 124.427 455.266 123.75 455.592 123.162C455.928 122.574 456.376 122.112 456.936 121.776C457.496 121.431 458.131 121.258 458.84 121.258C459.41 121.258 459.918 121.356 460.366 121.552C460.814 121.748 461.192 122.019 461.5 122.364C461.808 122.7 462.042 123.087 462.2 123.526C462.368 123.965 462.452 124.431 462.452 124.926C462.452 125.047 462.448 125.173 462.438 125.304C462.429 125.435 462.41 125.556 462.382 125.668H456.348V124.408H461.486L460.73 124.982C460.824 124.525 460.791 124.119 460.632 123.764C460.483 123.4 460.25 123.115 459.932 122.91C459.624 122.695 459.26 122.588 458.84 122.588C458.42 122.588 458.047 122.695 457.72 122.91C457.394 123.115 457.142 123.414 456.964 123.806C456.787 124.189 456.717 124.655 456.754 125.206C456.708 125.719 456.778 126.167 456.964 126.55C457.16 126.933 457.431 127.231 457.776 127.446C458.131 127.661 458.532 127.768 458.98 127.768C459.438 127.768 459.825 127.665 460.142 127.46C460.469 127.255 460.726 126.989 460.912 126.662L462.2 127.292C462.051 127.647 461.818 127.969 461.5 128.258C461.192 128.538 460.819 128.762 460.38 128.93C459.951 129.089 459.48 129.168 458.966 129.168ZM466.196 129.168C465.683 129.168 465.23 129.079 464.838 128.902C464.455 128.715 464.157 128.463 463.942 128.146C463.727 127.819 463.62 127.437 463.62 126.998C463.62 126.587 463.709 126.219 463.886 125.892C464.073 125.565 464.357 125.29 464.74 125.066C465.123 124.842 465.603 124.683 466.182 124.59L468.814 124.156V125.402L466.49 125.808C466.07 125.883 465.762 126.018 465.566 126.214C465.37 126.401 465.272 126.643 465.272 126.942C465.272 127.231 465.379 127.469 465.594 127.656C465.818 127.833 466.103 127.922 466.448 127.922C466.877 127.922 467.251 127.829 467.568 127.642C467.895 127.455 468.147 127.208 468.324 126.9C468.501 126.583 468.59 126.233 468.59 125.85V123.904C468.59 123.531 468.45 123.227 468.17 122.994C467.899 122.751 467.535 122.63 467.078 122.63C466.658 122.63 466.289 122.742 465.972 122.966C465.664 123.181 465.435 123.461 465.286 123.806L463.97 123.148C464.11 122.775 464.339 122.448 464.656 122.168C464.973 121.879 465.342 121.655 465.762 121.496C466.191 121.337 466.644 121.258 467.12 121.258C467.717 121.258 468.245 121.37 468.702 121.594C469.169 121.818 469.528 122.131 469.78 122.532C470.041 122.924 470.172 123.381 470.172 123.904V129H468.66V127.628L468.982 127.67C468.805 127.978 468.576 128.244 468.296 128.468C468.025 128.692 467.713 128.865 467.358 128.986C467.013 129.107 466.625 129.168 466.196 129.168ZM472.022 129V121.426H473.534V122.952L473.394 122.728C473.562 122.233 473.832 121.879 474.206 121.664C474.579 121.44 475.027 121.328 475.55 121.328H476.012V122.77H475.354C474.831 122.77 474.406 122.933 474.08 123.26C473.762 123.577 473.604 124.035 473.604 124.632V129H472.022ZM480.692 129.168C479.936 129.168 479.264 128.995 478.676 128.65C478.097 128.295 477.635 127.819 477.29 127.222C476.954 126.625 476.786 125.948 476.786 125.192C476.786 124.445 476.954 123.773 477.29 123.176C477.626 122.579 478.088 122.112 478.676 121.776C479.264 121.431 479.936 121.258 480.692 121.258C481.205 121.258 481.686 121.351 482.134 121.538C482.582 121.715 482.969 121.963 483.296 122.28C483.632 122.597 483.879 122.966 484.038 123.386L482.652 124.03C482.493 123.638 482.237 123.325 481.882 123.092C481.537 122.849 481.14 122.728 480.692 122.728C480.263 122.728 479.875 122.835 479.53 123.05C479.194 123.255 478.928 123.549 478.732 123.932C478.536 124.305 478.438 124.73 478.438 125.206C478.438 125.682 478.536 126.111 478.732 126.494C478.928 126.867 479.194 127.161 479.53 127.376C479.875 127.591 480.263 127.698 480.692 127.698C481.149 127.698 481.546 127.581 481.882 127.348C482.227 127.105 482.484 126.783 482.652 126.382L484.038 127.04C483.889 127.441 483.646 127.805 483.31 128.132C482.983 128.449 482.596 128.701 482.148 128.888C481.7 129.075 481.215 129.168 480.692 129.168ZM485.584 129V118.402H487.166V122.91L486.914 122.714C487.101 122.238 487.399 121.879 487.81 121.636C488.221 121.384 488.697 121.258 489.238 121.258C489.798 121.258 490.293 121.379 490.722 121.622C491.151 121.865 491.487 122.201 491.73 122.63C491.973 123.059 492.094 123.549 492.094 124.1V129H490.526V124.534C490.526 124.151 490.451 123.829 490.302 123.568C490.162 123.297 489.966 123.092 489.714 122.952C489.462 122.803 489.173 122.728 488.846 122.728C488.529 122.728 488.239 122.803 487.978 122.952C487.726 123.092 487.525 123.297 487.376 123.568C487.236 123.839 487.166 124.161 487.166 124.534V129H485.584Z" fill="#D9D9D9"/>
<rect x="396.5" y="92.5" width="7" height="7" stroke="#D9D9D9"/>
<rect x="387" y="101" width="8" height="8" fill="#D9D9D9"/>
<line x1="394.646" y1="108.646" x2="403.646" y2="99.6464" stroke="#D9D9D9"/>
<line x1="396.354" y1="92.3536" x2="387.354" y2="101.354" stroke="#D9D9D9"/>
<rect x="396.5" y="92.5" width="7" height="7" stroke="#D9D9D9"/>
<rect x="387" y="101" width="8" height="8" fill="#D9D9D9"/>
<line x1="394.646" y1="108.646" x2="403.646" y2="99.6464" stroke="#D9D9D9"/>
<line x1="396.354" y1="92.3536" x2="387.354" y2="101.354" stroke="#D9D9D9"/>
<path d="M394 102L403.5 92.5" stroke="#D9D9D9"/>
<rect x="368.5" y="73.5" width="7" height="7" stroke="#D9D9D9"/>
<rect x="363" y="78" width="8" height="8" fill="#D9D9D9"/>
<line x1="370.646" y1="85.6464" x2="375.646" y2="80.6464" stroke="#D9D9D9"/>
<line x1="368.354" y1="73.3536" x2="363.354" y2="78.3536" stroke="#D9D9D9"/>
<rect x="369.5" y="119.5" width="7" height="7" stroke="#D9D9D9"/>
<rect x="363" y="125" width="8" height="8" fill="#D9D9D9"/>
<line x1="369.354" y1="119.354" x2="363.354" y2="125.354" stroke="#D9D9D9"/>
<line x1="370.646" y1="132.646" x2="376.646" y2="126.646" stroke="#D9D9D9"/>
<path d="M376.5 119.5L370 126" stroke="#D9D9D9"/>
<rect x="395.5" y="117.5" width="7" height="7" stroke="#D9D9D9"/>
<rect x="387" y="125" width="8" height="8" fill="#D9D9D9"/>
<line x1="395.354" y1="117.354" x2="387.354" y2="125.354" stroke="#D9D9D9"/>
<line x1="394.646" y1="132.646" x2="402.646" y2="124.646" stroke="#D9D9D9"/>
<path d="M402.5 117.5L394 126" stroke="#D9D9D9"/>
<path d="M366 83L375.5 73.5" stroke="#D9D9D9"/>
<rect x="394.5" y="71.5" width="7" height="7" stroke="#D9D9D9"/>
<rect x="387" y="78" width="8" height="8" fill="#D9D9D9"/>
<line x1="394.354" y1="71.3536" x2="387.354" y2="78.3536" stroke="#D9D9D9"/>
<line x1="394.646" y1="85.6464" x2="401.646" y2="78.6464" stroke="#D9D9D9"/>
<path d="M401 72L394 79" stroke="#D9D9D9"/>
<rect x="367.5" y="97.5" width="7" height="7" stroke="#D9D9D9"/>
<rect x="363" y="101" width="8" height="8" fill="#D9D9D9"/>
<line x1="367.354" y1="97.3536" x2="363.354" y2="101.354" stroke="#D9D9D9"/>
<line x1="370.646" y1="108.646" x2="374.646" y2="104.646" stroke="#D9D9D9"/>
<path d="M374 98L370 102" stroke="#D9D9D9"/>
<rect x="342.5" y="98.5" width="7" height="7" stroke="#D9D9D9"/>
<rect x="339" y="101" width="8" height="8" fill="#D9D9D9"/>
<line x1="342.354" y1="98.3536" x2="339.354" y2="101.354" stroke="#D9D9D9"/>
<line x1="346.646" y1="108.646" x2="349.646" y2="105.646" stroke="#D9D9D9"/>
<path d="M349 99L346 102" stroke="#D9D9D9"/>
<rect x="339" y="125" width="8" height="8" fill="#D9D9D9"/>
<line x1="346.646" y1="132.646" x2="355.646" y2="123.646" stroke="#D9D9D9"/>
<line x1="348.354" y1="116.354" x2="339.354" y2="125.354" stroke="#D9D9D9"/>
<rect x="349.5" y="115.5" width="7" height="7" stroke="#D9D9D9"/>
<rect x="339" y="125" width="8" height="8" fill="#D9D9D9"/>
<line x1="346.646" y1="132.646" x2="356.646" y2="122.646" stroke="#D9D9D9"/>
<line x1="349.354" y1="115.354" x2="339.354" y2="125.354" stroke="#D9D9D9"/>
<path d="M346 126L356 116" stroke="#D9D9D9"/>
<rect x="339" y="78" width="8" height="8" fill="#D9D9D9"/>
<line x1="346.646" y1="85.6464" x2="355.646" y2="76.6464" stroke="#D9D9D9"/>
<line x1="348.354" y1="69.3536" x2="339.354" y2="78.3536" stroke="#D9D9D9"/>
<rect x="350.5" y="67.5" width="7" height="7" stroke="#D9D9D9"/>
<rect x="339" y="78" width="8" height="8" fill="#D9D9D9"/>
<line x1="346.646" y1="85.6464" x2="357.646" y2="74.6464" stroke="#D9D9D9"/>
<line x1="350.354" y1="67.3536" x2="339.354" y2="78.3536" stroke="#D9D9D9"/>
<path d="M346 79L357 68" stroke="#D9D9D9"/>
</svg>
